{"title":"indian bluefilm : Jawaani Mein Barsat.demon.mastitorrents","uid":6200925,"size":379287784,"categoryP":"porn","categoryS":"movies","magnet":"?xt=urn:btih:fbda06cb275ce5c9f5bbc842991a4329ba4f7f1b&amp;dn=indian+bluefilm+%3A+Jawaani+Mein+Barsat.demon.mastitorrents&amp;tr=udp%3A%2F%2Ftracker.openbittorrent.com%3A80&amp;tr=udp%3A%2F%2Fopen.demonii.com%3A1337&amp;tr=udp%3A%2F%2Ftracker.coppersurfer.tk%3A6969&amp;tr=udp%3A%2F%2Fexodus.desync.com%3A6969","seeders":1,"leechers":0,"uploader":"tdkdemon","files":2,"time":1298613225,"description":"$ DEMON TORRENTS $    #######   SERIOUS       UPLOADING!!!!!       ########\n\n\n\n\n\n....ALL THE FILES UPLOADED ARE NOT CREATED BY THE UPLOADER....\n\n\n\n\n\n\n\n****check out my other releases****\n             &lt;a href=&quot;\nhttp://thepiratebay.se/user/tdkdemon/&quot; rel=&quot;nofollow&quot; target=&quot;_NEW&quot;&gt;\nhttp://thepiratebay.se/user/tdkdemon/&lt;/a&gt;\n\n\n\n\n\nrelease info:\n\n\nUPLOADER : DEMON~THE DARK MASTER(TDM) {THE ULTIMATE INDIAN PORN UPLOADER}\n\n\nVideo\nID : 0\nFormat : xvid\nCodec ID : xvid\nDuration : 1h 6mn\nBit rate : 689 Kbps\nWidth : 352 pixels\nHeight : 288 pixels\nDisplay aspect ratio : 1.222\nFrame rate : 25.000 fps\nStandard : PAL\nBits/(Pixel*Frame) : 0.272\nStream size : 325 MiB (90%)\n\nAudio\nID : 1\nFormat : MPEG Audio\nFormat version : Version 1\nFormat profile : Layer 3\nMode : Joint stereo\nMode extension : MS Stereo\nCodec ID : 55\nCodec ID/Hint : MP3\nDuration : 1h 6mn\nBit rate mode : Constant\nBit rate : 64.0 Kbps\nChannel(s) : 2 channels\nSampling rate : 48.0 KHz\nCompression mode : Lossy\nStream size : 30.2 MiB (8%)\nAlignment : Aligned on interleaves\nInterleave, duration : 24 ms (0.60 video frame)\n\n\n\n\n\n\n&lt;&lt;&lt;&lt;&lt;&lt;&lt;    mastitorrents  &gt;&gt;&gt;&gt;&gt;&gt;\n\n\n\n\n\n@@@@@  SEED    SEED     SEED        AFTER     \\\\\\&quot;YOU\\\\\\&quot;     DOWNLOAD     !!!!!!!@@@@@\n\n\n\n\n\n\nSCREEN SHOTS :\n &lt;a href=&quot;\nhttp://www.savesnap.com/images/vlcsnagrg.png&quot; rel=&quot;nofollow&quot; target=&quot;_NEW&quot;&gt;\nhttp://www.savesnap.com/images/vlcsnagrg.png&lt;/a&gt;\n &lt;a href=&quot;\nhttp://www.savesnap.com/images/vlcsnaxlx.png&quot; rel=&quot;nofollow&quot; target=&quot;_NEW&quot;&gt;\nhttp://www.savesnap.com/images/vlcsnaxlx.png&lt;/a&gt;\n &lt;a href=&quot;\nhttp://www.savesnap.com/images/vlcsnawfw.png&quot; rel=&quot;nofollow&quot; target=&quot;_NEW&quot;&gt;\nhttp://www.savesnap.com/images/vlcsnawfw.png&lt;/a&gt; ","torrent":{"xt":"urn:btih:fbda06cb275ce5c9f5bbc842991a4329ba4f7f1b","amp;dn":"indian+bluefilm+%3A+Jawaani+Mein+Barsat.demon.mastitorrents","amp;tr":["udp%3A%2F%2Ftracker.openbittorrent.com%3A80","udp%3A%2F%2Fopen.demonii.com%3A1337","udp%3A%2F%2Ftracker.coppersurfer.tk%3A6969","udp%3A%2F%2Fexodus.desync.com%3A6969"],"infoHash":"fbda06cb275ce5c9f5bbc842991a4329ba4f7f1b","infoHashBuffer":{"type":"Buffer","data":[251,218,6,203,39,92,229,201,245,187,200,66,153,26,67,41,186,79,127,27]},"announce":[],"urlList":[]}}